<svg xmlns="http://www.w3.org/2000/svg" version="1.1" xmlns:xlink="http://www.w3.org/1999/xlink" width="512" height="512" x="0" y="0" viewBox="0 0 512 512" style="enable-background:new 0 0 512 512" xml:space="preserve" class=""><g><path d="M476 200h-36v-76a28.031 28.031 0 0 0-28-28H100a28.031 28.031 0 0 0-28 28v124H28a20.02 20.02 0 0 0-20 20v152a20.02 20.02 0 0 0 20 20h88a20.02 20.02 0 0 0 20-20v-52h70.56l-5.34 32H168a8 8 0 0 0-8 8v24a8 8 0 0 0 8 8h168a7.993 7.993 0 0 0 6.57-3.44A27.841 27.841 0 0 0 356 440h120a28.031 28.031 0 0 0 28-28V228a28.031 28.031 0 0 0-28-28zM84.9 264l-2.67 8H61.77l-2.67-8zM120 420a4 4 0 0 1-4 4H28a4 4 0 0 1-4-4V268a4 4 0 0 1 4-4h14.23l6.18 18.53A8 8 0 0 0 56 288h32a8 8 0 0 0 7.59-5.47l6.18-18.53H116a4 4 0 0 1 4 4zm208 4H176v-8h152zm-110.56-24 5.34-32h66.44l5.34 32zM328 400h-17.22l-5.34-32H328zm0-48H136v-24h192zm0-124v84H136v-44a20.02 20.02 0 0 0-20-20H88V124a12.01 12.01 0 0 1 12-12h312a12.01 12.01 0 0 1 12 12v76h-68a28.031 28.031 0 0 0-28 28zm160 184a12.01 12.01 0 0 1-12 12H356a12.01 12.01 0 0 1-12-12v-4h144zm0-20H344V248h144zm0-160H344v-4a12.01 12.01 0 0 1 12-12h120a12.01 12.01 0 0 1 12 12z" fill="#ffffff" opacity="1" data-original="#000000" class=""></path></g></svg>